<svg fill="none" height="132" viewBox="0 0 328 132" width="328" xmlns="http://www.w3.org/2000/svg" xmlns:xlink="http://www.w3.org/1999/xlink"><clipPath id="a"><path d="m0 .5h328v131h-328z"/></clipPath><clipPath id="b"><path d="m41.9688 18.0312h247.568v113.149h-247.568z"/></clipPath><g clip-path="url(#a)"><path d="m286.472 72.2994h-31.241c5.428 2.4406 10.038 6.4058 13.273 11.4178 3.236 5.012 4.958 10.8568 4.961 16.8298 0 8.209-3.247 16.082-9.027 21.887s-13.619 9.066-21.794 9.066h-187.89c-4.0484.001-8.0574-.798-11.7981-2.353-3.7406-1.555-7.1396-3.835-10.0028-6.709s-5.1344-6.287-6.684-10.043-2.3472-7.782-2.3472-11.848c-.003-4.0667.792-8.0941 2.3396-11.8521 1.5475-3.7581 3.8173-7.173 6.6796-10.0496 2.8623-2.8767 6.2609-5.1587 10.0017-6.7156 3.7409-1.557 7.7505-2.3584 11.7999-2.3584h91.0323c-2.768-1.6692-5.057-4.0307-6.644-6.8538-1.587-2.8232-2.418-6.0115-2.411-9.2536.006-4.9835 1.981-9.761 5.491-13.2839 3.51-3.5228 8.268-5.5031 13.23-5.5061h131.031c2.462-.003 4.901.4814 7.176 1.4255s4.343 2.3294 6.085 4.0766 3.124 3.8221 4.066 6.1061c.943 2.2839 1.428 4.7322 1.428 7.2046s-.485 4.9206-1.428 7.2046c-.942 2.2839-2.324 4.3588-4.066 6.1061-1.742 1.7472-3.81 3.1325-6.085 4.0765-2.275.9441-4.714 1.4285-7.176 1.4255z" fill="#f4f6f7"/><path d="m142.583.500001h-33.962c-1.366-.000592-2.719.268469-3.981.791809-1.263.52333-2.41 1.29069-3.376 2.25819-.966.96751-1.7321 2.1162-2.2546 3.38042-.5226 1.26422-.7912 2.61919-.7906 3.98748v11.928c0 1.3681.269 2.7228.7918 3.9867.5228 1.264 1.2894 2.4125 2.2554 3.3798.965.9674 2.112 1.7348 3.374 2.2583 1.262.5236 2.615.7931 3.981.7931h10.231c.256-.0001.508.0604.735.1763.228.1159.425.2841.575.4908l2.701 3.6966c.148.2066.343.3749.569.491.226.1162.476.1767.73.1767.253 0 .504-.0605.73-.1767.225-.1161.42-.2844.568-.491l2.548-3.6515c.149-.213.347-.3869.577-.5069.231-.1201.487-.1828.746-.1828h13.252c2.758-.0012 5.403-1.0993 7.353-3.0529 1.949-1.9536 3.045-4.6028 3.045-7.365v-11.9505c0-1.36791-.268-2.72251-.79-3.98644-.523-1.26392-1.288-2.41242-2.254-3.37986-.966-.96745-2.112-1.7349-3.374-2.2585s-2.614-.793099-3.98-.793099z" fill="#fbeceb"/><path d="m113.705 13.2401 6.343-5.78817c.027-.02808.06-.05038.096-.06559.037-.01522.076-.02306.115-.02306s.078.00784.115.02306c.036.01521.069.03751.097.06559.049.05674.077.12963.077.20511 0 .07547-.028.14837-.077.20511l-5.946 6.22095c-.108.1124-.256.1774-.411.1808s-.305-.0551-.418-.1628c-.112-.1076-.177-.2554-.18-.4109-.004-.1556.055-.3061.162-.4185z" fill="#facdd2"/><g fill="#870019"><path d="m120.5 11.1641c-.386 0-.764.1147-1.085.3297s-.572.5205-.719.878c-.148.3575-.187.7509-.112 1.1304.076.3795.262.7281.535 1.0017s.621.46 1 .5355.772.0367 1.129-.1114c.357-.148.662-.3988.877-.7205.214-.3218.329-.7.329-1.087 0-.5189-.206-1.0165-.572-1.3834-.367-.3669-.863-.573-1.382-.573zm0 3.1555c-.231 0-.457-.0685-.65-.1968s-.343-.3108-.433-.5244c-.089-.2137-.114-.4491-.07-.6767.043-.2276.153-.4373.315-.6027s.369-.2792.596-.3271c.226-.0479.462-.0278.677.0578s.4.2329.531.4234c.132.1905.205.4157.209.6474 0 .3121-.124.6113-.344.832-.22.2206-.519.3446-.831.3446z"/><path d="m127.574 10.1886c-.154-.0366-.313-.0422-.468-.0165s-.304.0822-.437.1661c-.134.084-.249.1937-.339.3229-.091.1291-.154.275-.188.4291l-.698 2.9301c-.035.1534-.039.3122-.013.4673.026.1552.083.3036.166.4368.084.1333.193.2486.321.3394.129.0909.273.1555.427.1901.153.0353.311.0399.466.0137s.304-.0829.437-.1666c.133-.0838.248-.1931.338-.3216.091-.1285.156-.2736.19-.4271l.693-2.9572c.066-.3054.009-.6244-.159-.8878-.167-.2633-.432-.4497-.736-.5187z"/><path d="m138.278 10.1886c-.153-.0366-.312-.0422-.468-.0165-.155.0257-.304.0822-.437.1661-.133.084-.248.1937-.339.3229-.09.1291-.154.275-.187.4291l-.707 2.9301c-.035.1534-.04.3122-.014.4673.026.1552.083.3036.166.4368.084.1333.193.2486.322.3394.128.0909.273.1555.426.1901.153.0353.312.0399.467.0137s.303-.0829.436-.1666c.133-.0838.248-.1931.339-.3216.09-.1285.155-.2736.189-.4271l.694-2.9572c.066-.3041.01-.622-.156-.8852-.166-.2631-.429-.4504-.731-.5213z"/></g><path d="m145.206 18.4206c0-.5822.231-1.1406.642-1.5523s.969-.643 1.55-.643h.873c-.634-.9185-1.482-1.6691-2.47-2.1873-.987-.5183-2.086-.7887-3.201-.788h-33.026c-1.115-.0018-2.214.2681-3.202.7864s-1.836 1.2695-2.469 2.1889h1.188c.581 0 1.139.2313 1.55.643s.642.9701.642 1.5523c0 .5823-.231 1.1407-.642 1.5524s-.969.643-1.55.643h-2.372c.102.4351.349.8225.7 1.0992s.784.4263 1.231.4245h42.874c.445-.0013.877-.1528 1.226-.43.349-.2773.594-.6642.696-1.0982h-2.048c-.581 0-1.137-.2307-1.548-.6414-.411-.4108-.643-.968-.644-1.5495z" fill="#f05069"/><path d="m107.281 18.4219c0-.5822-.231-1.1406-.642-1.5523s-.969-.643-1.55-.643h-1.188c-.802 1.1549-1.231 2.5286-1.229 3.9354 0 .1519.018.3033.054.4508h2.363c.581 0 1.138-.2307 1.549-.6414.41-.4108.642-.968.643-1.5495z" fill="#facdd2"/><path d="m149.497 20.162c.002-1.4068-.426-2.7804-1.229-3.9354h-.873c-.581 0-1.139.2313-1.55.643s-.642.9701-.642 1.5523c0 .5823.231 1.1407.642 1.5524s.969.643 1.55.643h2.048c.036-.1475.055-.2989.054-.4508z" fill="#facdd2"/><path d="m139.24 25.5644c1.755 0 3.178-1.4249 3.178-3.1826s-1.423-3.1826-3.178-3.1826-3.178 1.4249-3.178 3.1826 1.423 3.1826 3.178 3.1826z" fill="#870019"/><path d="m113.983 25.5644c1.755 0 3.177-1.4249 3.177-3.1826s-1.422-3.1826-3.177-3.1826c-1.756 0-3.178 1.4249-3.178 3.1826s1.422 3.1826 3.178 3.1826z" fill="#870019"/><path d="m123.467 15.0156h-1.787c-.246 0-.446.1998-.446.4463s.2.4463.446.4463h1.787c.246 0 .446-.1998.446-.4463s-.2-.4463-.446-.4463z" fill="#870019"/><g clip-path="url(#b)"><path d="m201.704 104.693c-9.498-.981-17.056-1.678-23.525-.981-7.391-.364-14.782.981-22.095 1.207-.467.034-.903.244-1.222.587-.319.344-.496.795-.496 1.264 0 .468.177.92.496 1.263s.755.553 1.222.587c2.078.069 4.039 0 6.019 0l2.391-.069c-4.835 2.303-9.377 5.181-13.527 8.571-1.539 1.217-3.019 2.434-4.519 3.769-.208.178-.378.395-.503.639-.124.244-.198.511-.22.784-.043.551.134 1.097.493 1.517.359.421.87.681 1.42.725.551.043 1.096-.135 1.516-.494 1.411-1.168 2.94-2.327 4.46-3.436 3.469-2.58 7.171-4.831 11.057-6.724l.225.265c-.972.484-1.906 1.042-2.793 1.669-2.706 1.816-4.745 4.849-7.254 6.547-.436.054-.877.054-1.314 0-.479-.022-.951.126-1.332.418s-.647.71-.751 1.179-.04.96.181 1.386c.222.426.587.761 1.03.944.57.279 1.19.439 1.823.471.855.052 1.709-.128 2.47-.52-.027.237-.006.477.062.705.068.229.182.441.334.624.152.184.339.335.551.444.212.108.443.173.681.19 1.175.075 2.346-.195 3.372-.775.214.429.53.799.919 1.077.39.279.841.459 1.316.523 1.42.112 2.836-.27 4.009-1.08 1.868-1.19 3.656-2.502 5.352-3.927l.676.766c3.784-3.338 7.95-3.279 25.653-1.531l1.96.186 1.814-18.524zm-41.964 19.477c1.6-1.557 3.307-3 5.107-4.319-1.294 1.178-2.548 2.366-3.921 3.475-.365.322-.762.605-1.186.844z" fill="#97420b"/><path d="m276.284 124.433c7.175-3.053 13.067-12.684 13.243-22.098.118-6.3223-1.656-12.7622-4.009-20.6844-.912-5.2276-3.526-10.006-7.434-13.5897-3.908-3.5836-8.891-5.771-14.17-6.2208-32.662-5.8901-38.847 13.8124-42.543 25.6515-1.617 5.1735-3.019 9.6402-5.881 12.2515-3.48 3.1509-10.204 4.4669-19.997 3.9269l-1.313 23.56c1.813.099 3.548.148 5.224.148 10.871 0 18.919-2.072 24.977-5.282-.922 1.283-1.966 2.473-3.117 3.554-2.706 2.522-5.927 4.425-9.44 5.576h.059.245 58.167l.804-5.409s1.333.255 5.185-1.384z" fill="#80a6ff"/><path d="m144.702 61.6861c-1.49-2.5229-4.715.9817-5.96 2.1107-1.194 1.2464-2.32 2.5573-3.372 3.9267-.539.7657-.902 1.3842-1.411 2.1499-.101.0915-.229.1467-.364.1567-.136.01-.271-.0257-.384-.1014-.112-.0756-.197-.187-.239-.3162-.042-.1293-.04-.269.006-.3968.686-.8218 1.466-1.5599 2.324-2.199.558-.7265 1.127-1.4431 1.695-2.1401 1.961-2.3168 4.019-4.9771 6.509-6.6362.196-.0889.372-.2157.518-.3731.147-.1574.261-.3423.335-.544.075-.2017.109-.4162.101-.6311-.009-.215-.06-.4262-.15-.6213-1.51-2.7095-5.235 1.5216-6.597 2.6113-2.348 2.2748-4.573 4.6736-6.666 7.1859-.284.4123-.558.8345-.833 1.2566-.101.0941-.23.1512-.368.1618-.137.0105-.274-.026-.388-.1036s-.198-.1917-.239-.3236-.035-.2737.015-.4022c1.827-2.4479 3.846-4.7458 6.038-6.8718 1.858-2.1898 4.056-4.0659 6.509-5.5563.404-.2565.696-.6584.813-1.1231.118-.4648.054-.957-.18-1.3756-.233-.4187-.618-.7318-1.075-.8751-.457-.1432-.951-.1058-1.381.1047-1.685.9213-3.269 2.0169-4.725 3.2691-2.123 1.8891-4.09 3.9476-5.881 6.1551-.981 1.3057-1.794 2.6702-2.618 4.0544-.431.6577-1.686 0-1.264-.7166.084-.1254.159-.2566.225-.3927 1.928-3.2902 4.394-6.2335 7.293-8.7076.167-.1178.53-.3828.706-.481.438-.2175.772-.5996.93-1.063s.127-.9705-.087-1.4108c-.217-.4289-.593-.755-1.048-.9076-.456-.1525-.952-.1192-1.383.0928-.343.1767-.48.2748-.706.4024-1.253.8215-2.419 1.7688-3.48 2.8273-2.241 2.2297-4.248 4.6837-5.989 7.3234l-.421.5007c-.131-1.2951-.486-2.5575-1.049-3.7305-.259-.4944-.589-.9477-.98-1.3449-.341-.3462-.805-.5429-1.29-.5465-.486-.0037-.953.1858-1.298.5269-.346.3411-.542.8057-.546 1.2918-.004.486.186.9536.526 1.2999 1.225 2.4836.833 5.3403-.137 8.0694-6.666 7.51-15.792 15.6482-30.6422 18.2693l3.2151 18.2688c24.7701-4.3779 37.8861-19.9672 45.7671-29.4503 2.343-2.5327 3.99-5.5465 6.215-8.1382.764-.9351 1.675-1.7406 2.695-2.3855.377-.1934.662-.5269.796-.9287.134-.4019.105-.8403-.08-1.2212z" fill="#f1b09f"/><path d="m154.731 101.834c4.435-.279 8.887.052 13.233.982 1.912.628 6.519.707 5.646 3.809-.178.517-.553.942-1.044 1.183-.49.241-1.056.278-1.573.103-5.158-1.338-10.521-1.697-15.811-1.06-.338.051-.684.032-1.015-.055s-.64-.241-.91-.453c-.269-.211-.492-.476-.656-.777-.163-.301-.263-.633-.294-.974s.009-.685.115-1.011c.107-.326.28-.626.507-.882.227-.257.504-.464.814-.609.31-.146.646-.226.988-.236z" fill="#f6bcae"/><path d="m264.692 44.8001c.255-.108.98-.4221 0 0l-.52.1767c-.431.1505-.862.2879-1.294.4123-.931.2847-1.872.5497-2.813.7952-1.147.3043-2.294.5988-3.441.8737l2.441 4.2016c2.196-2.5917 4.353-5.2128 6.411-7.9124.559-.7265 1.117-1.4627 1.598-2.2285.333-.5775.425-1.2633.256-1.9084s-.585-1.1975-1.158-1.5373c-.578-.3203-1.257-.4051-1.896-.2369s-1.189.5765-1.535 1.1401c-.402.6479-.862 1.2663-1.313 1.875-.161.1787-.309.369-.441.5694 0 0 .431-.5498.205-.2553l-.107.1277-.265.3435c-.324.4124-.647.8247-.98 1.2272-1.167 1.4627-2.363 2.945-3.559 4.339l-.764.9032c-.383.3977-.628.9085-.699 1.4566-.071.5482.037 1.1045.307 1.5866.296.4774.739.8461 1.262 1.0513.523.2051 1.098.2358 1.639.0875 3.153-.6542 6.245-1.5737 9.244-2.7488.562-.3328.973-.8713 1.147-1.5019.089-.3178.115-.6502.075-.9779-.039-.3278-.143-.6445-.305-.9319s-.38-.5399-.64-.7428c-.26-.203-.557-.3524-.875-.4398-.663-.144-1.356-.0538-1.961.2553z" fill="#3c3c3c"/><path d="m111.406 131.409-15.517-47.9154 16.762-3.6127-.147-1.659c-3.098-16.6887-7.842-23.1188-19.7223-22.412l-20.8104 2.5622c-9.1358 1.5413-14.7722 18.8288-18.7323 32.5332-3.4798 12.0547-1.784 40.5037 10.7826 40.5037h23.6923z" fill="#3c3c3c"/><path d="m176.815 116.197c-4.558-2.768-9.489-4.908-14.145-7.333 4.05 1.503 7.982 3.308 11.763 5.399 1.568.819 3.055 1.786 4.44 2.886.177.235.401.43.659.571.257.141.542.226.835.248.293.023.587-.018.863-.118s.527-.258.738-.463c.21-.205.374-.452.482-.726.107-.274.155-.567.141-.861-.015-.293-.092-.581-.225-.842-.134-.262-.322-.492-.552-.675-1.593-1.461-3.35-2.732-5.235-3.79-4.037-2.43-8.258-4.541-12.625-6.312l.235-.55c-8.988-3.8379-22.78-1.403-39.876 2.18-1.784.373-3.862.805-5.744 1.168-2.029-6.401-4.901-17.5428-6.979-27.0259l-20.34 4.5256c8.4398 38.0213 11.998 40.2493 15.439 42.3603 2.035 1.254 4.395 1.879 6.783 1.796 3.568 0 8.175-.982 15.096-2.405 6.92-1.424 23.28-4.909 27.505-3.387l.078-.177.814.383c4.48 2.131 10.087 2.945 13.909 5.89.361.289.816.431 1.276.397.46-.033.891-.238 1.206-.575.316-.337.493-.781.496-1.242.003-.462-.167-.908-.478-1.25-4.391-4.084-10.498-5.065-15.36-8.001l.049-.127c4.401 1.688 8.734 3.347 12.919 5.448 1.469.68 2.827 1.577 4.029 2.661.131.212.304.395.509.538.204.144.436.243.68.294.244.05.496.05.74 0 .245-.051.476-.151.681-.294.204-.143.377-.326.508-.539.131-.212.218-.449.254-.696.037-.247.023-.499-.041-.741-.065-.241-.177-.467-.331-.663-1.425-1.668-3.155-3.048-5.098-4.064-4.166-2.415-8.606-4.428-12.958-6.401l.215-.501c6.303 3.122 13.577 5.4 18.674 9.906.41.34.933.513 1.465.485.533-.029 1.034-.258 1.405-.641.372-.383.585-.892.598-1.425.013-.534-.175-1.052-.527-1.453-1.494-1.484-3.163-2.779-4.97-3.858z" fill="#f6bcae"/><path d="m91.8659 49.2699c-.2957-.1168-.5367-.3409-.6748-.6276-.1382-.2868-.1634-.6151-.0707-.9197.0927-.3045.2965-.5629.5709-.7237s.5993-.2122.9098-.1439c.4269.1225.8694.1821 1.3135.1767 0-.1865 0-.373-.0686-.5596 0-.8737 1.2351-.9817 1.1468-1.5903-.0882-.6086-1.3821-.9817-1.8428-2.8076l-.147-.9326c-.4342-2.5611-1.8461-4.8526-3.9371-6.3898-2.0911-1.5371-4.6972-2.1994-7.267-1.8466-1.2588.157-2.4732.5657-3.5713 1.2018-1.098.6361-2.0572 1.4867-2.8207 2.5013-.7634 1.0145-1.3155 2.1724-1.6235 3.4047-.308 1.2324-.3657 2.5142-.1695 3.7693l.8234 5.1931c.432 2.5662 1.8437 4.8634 3.9364 6.406 2.0928 1.5426 4.7026 2.2096 7.2775 1.8599 1.988-.257 3.8445-1.1354 5.3052-2.5101 1.4607-1.3748 2.4513-3.1759 2.8308-5.1471-.6517-.0177-1.2979-.1233-1.9213-.3142z" fill="#f6bcae"/><g fill="#97420b"><path d="m180.181 117.928c-5.293-3.514-10.596-7.068-16.556-9.375-.072-.029-.15-.043-.228-.041-.077.002-.154.02-.225.053-.07.033-.133.08-.185.138-.052.059-.091.127-.115.201s-.033.152-.026.23.031.153.068.221c.038.069.089.129.15.176.062.048.132.083.208.102 1.48.475 2.922 1.063 4.313 1.757 4.233 2.076 8.344 4.393 12.312 6.941.053.037.119.052.183.041.065-.011.122-.047.16-.1.038-.054.052-.12.041-.184-.011-.065-.047-.122-.1-.16z"/><path d="m160.735 112.955c-.139-.059-.296-.06-.436-.003-.139.057-.251.168-.309.307-.059.139-.06.296-.003.436s.168.252.307.31c4.862 2.059 9.61 4.379 14.223 6.95.06.034.131.044.198.028.068-.017.126-.058.165-.116.032-.062.04-.133.022-.201-.018-.067-.061-.125-.12-.162-4.541-2.772-9.231-5.292-14.047-7.549z"/><path d="m158.607 117.932c-.099-.034-.206-.039-.308-.015-.102.025-.195.077-.269.152-.073.075-.124.169-.147.271-.023.103-.017.209.018.308-.329.1-.636.265-.9.486-.265.221-.482.493-.639.8-.149-.517-.46-.974-.887-1.301-.428-.328-.948-.511-1.487-.52-.538-.01-1.065.153-1.504.465s-.766.756-.935 1.268c-.558 1.495-.653 3.123-.274 4.673l2.411-.726 2.196-.57c.07 1.005.274 1.995.608 2.945.177.485.499.903.921 1.198.423.295.926.453 1.441.451.294-.001.585-.05.863-.147.403-.15.762-.399 1.043-.725s.475-.719.564-1.14c.128.314.245.54.275.628.15.399.418.743.768.985.351.242.767.371 1.192.37.235 0 .343.903.579.825.517-.189.938-.574 1.173-1.072s.264-1.069.081-1.589c-.254-.69-.321-1.435-.196-2.159.114-.503.037-1.031-.216-1.48-.252-.45-.662-.789-1.151-.953-.488-.164-1.019-.14-1.491.066-.472.207-.851.581-1.063 1.051-.122.362-.197.738-.225 1.119-.136-.584-.136-1.192 0-1.777.116-.34.156-.703.118-1.061-.039-.357-.157-.702-.344-1.01 3.567 1.21 7.026 2.718 10.342 4.506.051.029.111.036.167.02.056-.015.103-.053.132-.104.028-.05.036-.11.02-.167-.016-.056-.053-.103-.103-.132-4.031-2.437-8.313-4.428-12.773-5.939z"/><path d="m209.902 69.2559c-1.539-.3648-3.051-.8305-4.529-1.394-.444-.2057-.952-.2261-1.412-.0567-.459.1694-.833.5146-1.038.9598-.206.4453-.226.954-.057 1.4142.169.4603.514.8344.958 1.0401 1.863.863 3.786 1.5881 5.754 2.1695-4.728.6266-9.381 1.7284-13.89 3.2887-1.676.5792-3.293 1.178-4.979 1.9633-.447.194-.799.5579-.978 1.0117-.18.4538-.171.9604.022 1.4082.194.4478.557.8002 1.01.9797.454.1795.959.1714 1.406-.0226 1.481-.589 3.108-1.1289 4.696-1.6099h.117c4.23-1.394 8.582-2.3802 12.998-2.9451.084-.0151.169-.0126.252.0074.082.0201.16.0572.227.1089.067.0518.123.1171.163.1917.041.0746.065.1569.072.2416s-.004.1698-.032.25-.072.1537-.13.2156c-.058.062-.128.1111-.207.1442-.078.0331-.162.0495-.247.0481-3.018.2571-6.02.6897-8.988 1.2958l-.981.2749c-3.663 1.0673-7.263 2.3422-10.782 3.8187-.462.1914-.828.5585-1.02 1.0206-.191.4621-.191.9813 0 1.4435.191.4621.558.8293 1.019 1.0208.462.1914.98.1915 1.442.0001 2.45-.9129 4.979-1.7866 7.548-2.5524 2.568-.7657 4.969-1.5117 7.489-2.1204 1.655-.4243 3.334-.7521 5.028-.9817.157-.0131.312.0351.434.1344.122.0994.201.2422.22.3985.019.1562-.023.3138-.118.4396-.094.1258-.234.21-.389.235-3.182.3262-6.339.8674-9.449 1.6198-2.614.7657-5.186 1.6656-7.715 2.6996-.377.1704-.675.4784-.834.8613-.158.3829-.165.8118-.019 1.1996s.434.7052.806.8877c.371.1825.799.2164 1.194.0947 1.382-.4713 2.853-.913 4.303-1.3057l1.275-.3141c3.268-1.082 6.633-1.8479 10.047-2.2874.084-.0151.169-.0126.252.0075.082.02.159.0571.227.1089.067.0517.123.117.163.1917.041.0746.065.1569.072.2415.007.0847-.004.1699-.032.2501s-.072.1536-.13.2156c-.058.0619-.129.1111-.207.1442s-.162.0494-.247.048c-2.039.1473-4.117.3534-6.166.697l-5.479 1.4922c-.408.1103-.757.3751-.973.7383s-.283.7964-.186 1.2081c.096.4117.349.7696.704.9981.356.2284.786.3096 1.2.2263l12.263-2.3855c7.694-.9817 9.175-.2748 17.203 5.8902l11.135-14.3621c-6.126-4.7318-10.871-7.8535-16.664-9.2574-4.538-1.875-9.165-2.5229-13.821-3.75z"/><path d="m263.744 52.1625c.377-1.197.515-2.4566.406-3.707-.11-1.2504-.464-2.467-1.043-3.5802s-1.371-2.1012-2.332-2.9075c-.96-.8063-2.07-1.4152-3.266-1.7917l-.215-.0687c-1.197-.3839-2.458-.5271-3.711-.4212-1.252.1058-2.471.4585-3.587 1.0378s-2.107 1.3738-2.915 2.3377c-.808.964-1.418 2.0785-1.795 3.2794l-.235.7461c-.735 1.6296-2.284 1.4136-2.539 2.199-.255.7853 1.353 1.394 1.088 2.3266h.069c.537.0768 1.083-.053 1.529-.3633.26-.164.574-.2179.874-.1497.299.0681.56.2526.723.513.164.2603.218.5752.15.8753s-.252.5608-.512.7248c-.948.6336-2.103.8762-3.225.6774h-.196c-.27 1.5343.025 3.1145.831 4.447.806 1.3326 2.068 2.3268 3.55 2.7979h.108l.981 2.8567c-1.343 5.2913.049 10.2095 3.381 11.3385 3.608 1.2271 8.126-2.4641 10.077-8.2364.128-.373.216-.7363.304-1.0897.797-1.7125.885-3.671.245-5.4483l-.931-2.5917c.413-.6532.742-1.3557.98-2.091z"/></g><path d="m246.844 46.4384c-.25-.0096-.498.0555-.711.1869-.213.1315-.383.3234-.487.5514-.104.2281-.139.482-.098.7296.04.2476.152.4777.323.6612.171.1834.392.3119.636.3693.244.0573.499.0408.733-.0474.235-.0882.438-.2442.584-.4481s.228-.4465.236-.6972c.006-.1659-.02-.3314-.078-.487s-.145-.2982-.258-.4196-.249-.2191-.4-.2876-.314-.1064-.48-.1115z" fill="#3c3c3c"/><path d="m268.569 45.1642c-.334-.4259-.772-.7581-1.271-.9645-.5-.2064-1.045-.28-1.581-.2135.451-.6185.901-1.2566 1.333-1.9634 1.46-2.307-.98-5.095-3.431-4.4667-.725.1865-1.441.4025-2.157.6283.321-.5808.446-1.2494.358-1.907s-.386-1.2694-.848-1.7449c-.483-.4582-1.099-.7515-1.76-.8379-.66-.0864-1.331.0385-1.916.3569-3.303 1.5314-6.695 2.7684-9.557 5.0851-1.284.9817-1.078 3.2298 0 4.2998.413.4123.94.6922 1.512.804.573.1119 1.166.0508 1.703-.1757.055.4377.2.8591.428 1.2367.228.3775.532.7029.894.9548.361.2519.772.4247 1.205.5071.432.0825.877.0729 1.306-.0284.529-.1374 1.059-.2847 1.578-.4516-.294.432-.598.8737-.892 1.3351-.386.5835-.539 1.291-.428 1.9821.111.6912.477 1.3152 1.026 1.7484 0-.0688 0-.1277 0-.1964.692.3607 1.497.4381 2.245.216 1.137-.3043 2.411-1.1879 4.029-3.4556.556.521.94 1.1999 1.1 1.9457.16.7457.089 1.5227-.205 2.2267-.293.7039-.794 1.3012-1.436 1.7118s-1.394.6147-2.155.5852c-.312-.0164-.621-.0691-.921-.1571-.481.7559-.981 1.4922-1.52 2.2088-.339.5792-.477 1.2549-.392 1.9211.085.6663.388 1.2854.863 1.7602.481.4623 1.097.7584 1.759.8449.661.0865 1.333-.0409 1.917-.3638 1.766-.9543 3.454-2.0474 5.048-3.2691.676-.4249 1.165-1.0919 1.367-1.8653s.102-1.5948-.279-2.297c-.187-.3074-.43-.5771-.716-.7952.677-1.286 1.343-2.5818 2.049-3.8482.291-.523.422-1.1201.376-1.7171-.045-.5969-.264-1.1673-.631-1.6403z" fill="#3c3c3c"/><path d="m91.0875 41.6483c-.2292.0377-.4421.1424-.6119.301-.1699.1587-.289.3641-.3425.5904-.0534.2263-.0388.4634.0421.6814s.2244.4072.4124.5436c.1881.1365.4122.2142.6443.2233.232.0091.4616-.0509.6597-.1722s.3559-.2987.4535-.5097.1307-.4463.0951-.6761c-.0239-.1537-.0779-.3011-.1589-.4338s-.1875-.248-.3133-.3393c-.1257-.0912-.2683-.1567-.4194-.1925-.1512-.0358-.3079-.0412-.4611-.0161z" fill="#3c3c3c"/><path d="m254.635 57.5815c-1.354 1.3971-3.107 2.3401-5.018 2.6997-.147.0246-.28.1024-.373.2185-.094.1161-.141.2625-.134.4114s.069.2899.173.3964.244.1709.392.1812h.059c2.246-.383 4.309-1.4812 5.882-3.1316.102-.1302.149-.2959.13-.4607s-.103-.3151-.233-.418c-.13-.1028-.296-.1497-.46-.1304-.165.0193-.315.1033-.418.2335z" fill="#3c3c3c"/><path d="m92.2644 37.725c-.3605-1.5909-1.2508-3.0116-2.5246-4.0286-1.2737-1.0169-2.8551-1.5696-4.4841-1.567-13.8311-.3632-12.596 11.2698-13.9487 14.313-2.6074 5.8902-9.4495 3.4752-13.1351 8.8352-4.1366 6.0571-2.1958 7.0191-3.823 10.3863-1.1861 2.4641-3.5778 3.6323-5.9696 5.1441-1.7118.8996-3.1788 2.2036-4.2738 3.7991-.7072.9965-1.25 2.1002-1.6076 3.269-.5068 1.6173-.6573 3.3255-.4411 5.0066.267 2.0912 1.0831 4.0739 2.365 5.7461 1.282 1.6721 2.9838 2.9738 4.9321 3.7722 1.9482.7984 4.073 1.065 6.1577.7725 2.0847-.2924 4.0546-1.1334 5.7088-2.4372 1.2503-.9856 2.7703-1.567 4.3583-1.6669 1.588-.1 3.1688.2862 4.5324 1.1073 2.2189 1.298 4.7671 1.921 7.3335 1.7929 2.5665-.1281 5.0402-1.0018 7.1192-2.5144 2.0789-1.5126 3.6731-3.5987 4.588-6.0035.9149-2.4049 1.1109-5.0244.564-7.539-.3022-1.4023-.8533-2.739-1.6272-3.9463-.6016-.9425-1.2979-1.8207-2.0781-2.6212-2.0487-1.767-2.1565-4.1525-1.3625-6.754 2.382-7.7357-3.9209-7.5982-1.1567-13.8909 1.9017-4.3096 10.1062-4.771 8.7731-10.9753z" fill="#ff6e14"/><path d="m78.9231 29.4186c.1511-.0706.2984-.1492.4411-.2356l1.8919-.1865c.589-1.4637.9462-3.0105 1.0586-4.5845-.0049-.0916-.0049-.1833 0-.2749v-.2749c0-.1374 0-.265 0-.4025 0-.1374 0-.1178 0-.1668-.0796-.6528-.2615-1.2889-.5391-1.8849-.5088-1.0692-1.3229-1.9633-2.3392-2.5692s-2.1891-.8963-3.3702-.8346c-1.1811.0618-2.3174.4729-3.2652 1.1815-.9478.7085-1.6644 1.6826-2.0594 2.7991-.3949 1.1165-.4503 2.3252-.1593 3.4733.2911 1.148.9156 2.1838 1.7945 2.9764s1.9728 1.3063 3.1433 1.4763c1.1704.1699 2.365-.0116 3.4324-.5217z" fill="#ff6e14"/><path d="m80.8059 28.7747-2.744.7802c-1.1301.3213-1.7862 1.4993-1.4653 2.6311l.0027.0094c.3208 1.1318 1.497 1.7888 2.6272 1.4675l2.744-.7802c1.1301-.3214 1.7861-1.4993 1.4653-2.6311l-.0027-.0095c-.3209-1.1318-1.4971-1.7888-2.6272-1.4674z" fill="#ff6e14"/></g></g></svg>